<svg width="28" height="28" viewBox="0 0 28 28" fill="none" xmlns="http://www.w3.org/2000/svg">
<path d="M13.9999 18.0833C16.5783 18.0833 18.6666 15.995 18.6666 13.4166V6.99998C18.6666 4.42165 16.5783 2.33331 13.9999 2.33331C11.4216 2.33331 9.33325 4.42165 9.33325 6.99998V13.4166C9.33325 15.995 11.4216 18.0833 13.9999 18.0833Z" stroke="#17C3CE" stroke-width="1.41231" stroke-linecap="round" stroke-linejoin="round"/>
<path d="M5.07507 11.2584V13.2418C5.07507 18.1651 9.07674 22.1668 14.0001 22.1668C18.9234 22.1668 22.9251 18.1651 22.9251 13.2418V11.2584" stroke="#17C3CE" stroke-width="1.41231" stroke-linecap="round" stroke-linejoin="round"/>
<path d="M12.3783 7.50182C13.4283 7.11682 14.5716 7.11682 15.6216 7.50182" stroke="#17C3CE" stroke-width="1.41231" stroke-linecap="round" stroke-linejoin="round"/>
<path d="M13.0668 9.97498C13.6851 9.81164 14.3268 9.81164 14.9451 9.97498" stroke="#17C3CE" stroke-width="1.41231" stroke-linecap="round" stroke-linejoin="round"/>
<path d="M14 22.1667V25.6667" stroke="#17C3CE" stroke-width="1.41231" stroke-linecap="round" stroke-linejoin="round"/>
</svg>
